<mxfile host="app.diagrams.net" modified="2022-06-16T08:47:55.835Z" agent="5.0 (Windows NT 10.0; Win64; x64) AppleWebKit/537.36 (KHTML, like Gecko) Chrome/102.0.5005.124 Safari/537.36 Edg/102.0.1245.41" etag="HL7xZQov2QUzUQJVvv8f" version="19.0.3" type="github">
  <diagram id="V5kDmpHyvOkLffiQJ7OR" name="Page-1">
    <mxGraphModel dx="1273" dy="772" grid="1" gridSize="10" guides="1" tooltips="1" connect="1" arrows="1" fold="1" page="1" pageScale="1" pageWidth="827" pageHeight="1169" math="0" shadow="0">
      <root>
        <mxCell id="0" />
        <mxCell id="1" parent="0" />
        <mxCell id="irn-x4I0Ozi95wOQKls3-12" style="edgeStyle=orthogonalEdgeStyle;rounded=0;orthogonalLoop=1;jettySize=auto;html=1;exitX=0.5;exitY=1;exitDx=0;exitDy=0;entryX=0.5;entryY=0;entryDx=0;entryDy=0;fontFamily=Times New Roman;endArrow=block;endFill=1;" edge="1" parent="1" source="irn-x4I0Ozi95wOQKls3-1" target="irn-x4I0Ozi95wOQKls3-7">
          <mxGeometry relative="1" as="geometry" />
        </mxCell>
        <mxCell id="irn-x4I0Ozi95wOQKls3-38" style="edgeStyle=orthogonalEdgeStyle;rounded=0;orthogonalLoop=1;jettySize=auto;html=1;exitX=1;exitY=0.5;exitDx=0;exitDy=0;fontFamily=Times New Roman;fontSize=13;endArrow=block;endFill=1;" edge="1" parent="1" source="irn-x4I0Ozi95wOQKls3-1" target="irn-x4I0Ozi95wOQKls3-37">
          <mxGeometry relative="1" as="geometry" />
        </mxCell>
        <mxCell id="irn-x4I0Ozi95wOQKls3-1" value="" style="shape=parallelogram;perimeter=parallelogramPerimeter;whiteSpace=wrap;html=1;fixedSize=1;" vertex="1" parent="1">
          <mxGeometry x="40" y="240" width="160" height="65" as="geometry" />
        </mxCell>
        <mxCell id="irn-x4I0Ozi95wOQKls3-14" style="edgeStyle=orthogonalEdgeStyle;rounded=0;orthogonalLoop=1;jettySize=auto;html=1;exitX=0.5;exitY=1;exitDx=0;exitDy=0;entryX=0.5;entryY=0;entryDx=0;entryDy=0;fontFamily=Times New Roman;endArrow=block;endFill=1;" edge="1" parent="1" source="irn-x4I0Ozi95wOQKls3-3" target="irn-x4I0Ozi95wOQKls3-8">
          <mxGeometry relative="1" as="geometry" />
        </mxCell>
        <mxCell id="irn-x4I0Ozi95wOQKls3-41" style="edgeStyle=orthogonalEdgeStyle;rounded=0;orthogonalLoop=1;jettySize=auto;html=1;exitX=1;exitY=0.5;exitDx=0;exitDy=0;fontFamily=Times New Roman;fontSize=13;endArrow=block;endFill=1;" edge="1" parent="1" source="irn-x4I0Ozi95wOQKls3-3" target="irn-x4I0Ozi95wOQKls3-40">
          <mxGeometry relative="1" as="geometry" />
        </mxCell>
        <mxCell id="irn-x4I0Ozi95wOQKls3-3" value="" style="shape=parallelogram;perimeter=parallelogramPerimeter;whiteSpace=wrap;html=1;fixedSize=1;" vertex="1" parent="1">
          <mxGeometry x="55" y="393" width="130" height="60" as="geometry" />
        </mxCell>
        <mxCell id="irn-x4I0Ozi95wOQKls3-44" style="edgeStyle=orthogonalEdgeStyle;rounded=0;orthogonalLoop=1;jettySize=auto;html=1;exitX=1;exitY=0.5;exitDx=0;exitDy=0;entryX=0;entryY=0.5;entryDx=0;entryDy=0;fontFamily=Times New Roman;fontSize=13;endArrow=block;endFill=1;" edge="1" parent="1" source="irn-x4I0Ozi95wOQKls3-4" target="irn-x4I0Ozi95wOQKls3-43">
          <mxGeometry relative="1" as="geometry" />
        </mxCell>
        <mxCell id="irn-x4I0Ozi95wOQKls3-4" value="" style="shape=parallelogram;perimeter=parallelogramPerimeter;whiteSpace=wrap;html=1;fixedSize=1;" vertex="1" parent="1">
          <mxGeometry x="65" y="549" width="110" height="50" as="geometry" />
        </mxCell>
        <mxCell id="irn-x4I0Ozi95wOQKls3-10" style="edgeStyle=orthogonalEdgeStyle;rounded=0;orthogonalLoop=1;jettySize=auto;html=1;exitX=0.5;exitY=1;exitDx=0;exitDy=0;entryX=0.5;entryY=0;entryDx=0;entryDy=0;fontFamily=Times New Roman;endArrow=block;endFill=1;" edge="1" parent="1" source="irn-x4I0Ozi95wOQKls3-5" target="irn-x4I0Ozi95wOQKls3-6">
          <mxGeometry relative="1" as="geometry" />
        </mxCell>
        <mxCell id="irn-x4I0Ozi95wOQKls3-34" style="edgeStyle=orthogonalEdgeStyle;rounded=0;orthogonalLoop=1;jettySize=auto;html=1;exitX=1;exitY=0.5;exitDx=0;exitDy=0;entryX=0;entryY=0.5;entryDx=0;entryDy=0;fontFamily=Times New Roman;fontSize=13;endArrow=block;endFill=1;" edge="1" parent="1" source="irn-x4I0Ozi95wOQKls3-5" target="irn-x4I0Ozi95wOQKls3-33">
          <mxGeometry relative="1" as="geometry">
            <Array as="points">
              <mxPoint x="240" y="120" />
            </Array>
          </mxGeometry>
        </mxCell>
        <mxCell id="irn-x4I0Ozi95wOQKls3-5" value="" style="shape=parallelogram;perimeter=parallelogramPerimeter;whiteSpace=wrap;html=1;fixedSize=1;" vertex="1" parent="1">
          <mxGeometry x="20" y="86" width="200" height="70" as="geometry" />
        </mxCell>
        <mxCell id="irn-x4I0Ozi95wOQKls3-11" style="edgeStyle=orthogonalEdgeStyle;rounded=0;orthogonalLoop=1;jettySize=auto;html=1;exitX=0.5;exitY=1;exitDx=0;exitDy=0;fontFamily=Times New Roman;endArrow=block;endFill=1;" edge="1" parent="1" source="irn-x4I0Ozi95wOQKls3-6" target="irn-x4I0Ozi95wOQKls3-1">
          <mxGeometry relative="1" as="geometry" />
        </mxCell>
        <mxCell id="irn-x4I0Ozi95wOQKls3-6" value="&lt;p class=&quot;MsoNormal&quot;&gt;&lt;b&gt;&lt;font style=&quot;font-size: 13px;&quot; face=&quot;Times New Roman&quot;&gt;EfficientNet-2&lt;/font&gt;&lt;/b&gt;&lt;/p&gt;" style="rounded=1;whiteSpace=wrap;html=1;" vertex="1" parent="1">
          <mxGeometry x="75" y="181" width="90" height="30" as="geometry" />
        </mxCell>
        <mxCell id="irn-x4I0Ozi95wOQKls3-13" style="edgeStyle=orthogonalEdgeStyle;rounded=0;orthogonalLoop=1;jettySize=auto;html=1;exitX=0.5;exitY=1;exitDx=0;exitDy=0;fontFamily=Times New Roman;endArrow=block;endFill=1;" edge="1" parent="1" source="irn-x4I0Ozi95wOQKls3-7" target="irn-x4I0Ozi95wOQKls3-3">
          <mxGeometry relative="1" as="geometry" />
        </mxCell>
        <mxCell id="irn-x4I0Ozi95wOQKls3-7" value="&lt;p class=&quot;MsoNormal&quot;&gt;&lt;b&gt;&lt;font style=&quot;font-size: 13px;&quot; face=&quot;Times New Roman&quot;&gt;EfficientNet-3&lt;/font&gt;&lt;/b&gt;&lt;/p&gt;" style="rounded=1;whiteSpace=wrap;html=1;" vertex="1" parent="1">
          <mxGeometry x="75" y="333" width="90" height="30" as="geometry" />
        </mxCell>
        <mxCell id="irn-x4I0Ozi95wOQKls3-15" style="edgeStyle=orthogonalEdgeStyle;rounded=0;orthogonalLoop=1;jettySize=auto;html=1;exitX=0.5;exitY=1;exitDx=0;exitDy=0;entryX=0.5;entryY=0;entryDx=0;entryDy=0;fontFamily=Times New Roman;endArrow=block;endFill=1;" edge="1" parent="1" source="irn-x4I0Ozi95wOQKls3-8" target="irn-x4I0Ozi95wOQKls3-4">
          <mxGeometry relative="1" as="geometry" />
        </mxCell>
        <mxCell id="irn-x4I0Ozi95wOQKls3-8" value="&lt;p class=&quot;MsoNormal&quot;&gt;&lt;b&gt;&lt;font style=&quot;font-size: 13px;&quot; face=&quot;Times New Roman&quot;&gt;EfficientNet-4&lt;/font&gt;&lt;/b&gt;&lt;/p&gt;" style="rounded=1;whiteSpace=wrap;html=1;" vertex="1" parent="1">
          <mxGeometry x="75" y="484" width="90" height="30" as="geometry" />
        </mxCell>
        <mxCell id="irn-x4I0Ozi95wOQKls3-16" style="edgeStyle=orthogonalEdgeStyle;rounded=0;orthogonalLoop=1;jettySize=auto;html=1;exitX=0.5;exitY=1;exitDx=0;exitDy=0;entryX=0.5;entryY=0;entryDx=0;entryDy=0;fontFamily=Times New Roman;endArrow=block;endFill=1;" edge="1" parent="1" source="irn-x4I0Ozi95wOQKls3-9" target="irn-x4I0Ozi95wOQKls3-5">
          <mxGeometry relative="1" as="geometry" />
        </mxCell>
        <mxCell id="irn-x4I0Ozi95wOQKls3-9" value="&lt;p class=&quot;MsoNormal&quot;&gt;&lt;b&gt;&lt;font style=&quot;font-size: 13px;&quot; face=&quot;Times New Roman&quot;&gt;EfficientNet-1&lt;/font&gt;&lt;/b&gt;&lt;/p&gt;" style="rounded=1;whiteSpace=wrap;html=1;" vertex="1" parent="1">
          <mxGeometry x="75" y="30" width="90" height="30" as="geometry" />
        </mxCell>
        <mxCell id="irn-x4I0Ozi95wOQKls3-17" style="edgeStyle=orthogonalEdgeStyle;rounded=0;orthogonalLoop=1;jettySize=auto;html=1;exitX=0.5;exitY=1;exitDx=0;exitDy=0;entryX=0.5;entryY=0;entryDx=0;entryDy=0;fontFamily=Times New Roman;endArrow=block;endFill=1;" edge="1" parent="1" source="irn-x4I0Ozi95wOQKls3-18" target="irn-x4I0Ozi95wOQKls3-27">
          <mxGeometry relative="1" as="geometry" />
        </mxCell>
        <mxCell id="irn-x4I0Ozi95wOQKls3-39" style="edgeStyle=orthogonalEdgeStyle;rounded=0;orthogonalLoop=1;jettySize=auto;html=1;exitX=0;exitY=0.5;exitDx=0;exitDy=0;entryX=1;entryY=0.5;entryDx=0;entryDy=0;fontFamily=Times New Roman;fontSize=13;endArrow=block;endFill=1;" edge="1" parent="1" source="irn-x4I0Ozi95wOQKls3-18" target="irn-x4I0Ozi95wOQKls3-37">
          <mxGeometry relative="1" as="geometry" />
        </mxCell>
        <mxCell id="irn-x4I0Ozi95wOQKls3-60" style="edgeStyle=orthogonalEdgeStyle;rounded=0;orthogonalLoop=1;jettySize=auto;html=1;exitX=1;exitY=0.5;exitDx=0;exitDy=0;fontFamily=Times New Roman;fontSize=13;endArrow=block;endFill=1;" edge="1" parent="1" source="irn-x4I0Ozi95wOQKls3-18">
          <mxGeometry relative="1" as="geometry">
            <mxPoint x="807" y="272" as="targetPoint" />
          </mxGeometry>
        </mxCell>
        <mxCell id="irn-x4I0Ozi95wOQKls3-18" value="" style="shape=parallelogram;perimeter=parallelogramPerimeter;whiteSpace=wrap;html=1;fixedSize=1;" vertex="1" parent="1">
          <mxGeometry x="434" y="240" width="160" height="65" as="geometry" />
        </mxCell>
        <mxCell id="irn-x4I0Ozi95wOQKls3-19" style="edgeStyle=orthogonalEdgeStyle;rounded=0;orthogonalLoop=1;jettySize=auto;html=1;exitX=0.5;exitY=1;exitDx=0;exitDy=0;entryX=0.5;entryY=0;entryDx=0;entryDy=0;fontFamily=Times New Roman;endArrow=block;endFill=1;" edge="1" parent="1" source="irn-x4I0Ozi95wOQKls3-20" target="irn-x4I0Ozi95wOQKls3-29">
          <mxGeometry relative="1" as="geometry" />
        </mxCell>
        <mxCell id="irn-x4I0Ozi95wOQKls3-42" style="edgeStyle=orthogonalEdgeStyle;rounded=0;orthogonalLoop=1;jettySize=auto;html=1;exitX=0;exitY=0.5;exitDx=0;exitDy=0;fontFamily=Times New Roman;fontSize=13;endArrow=block;endFill=1;" edge="1" parent="1" source="irn-x4I0Ozi95wOQKls3-20" target="irn-x4I0Ozi95wOQKls3-40">
          <mxGeometry relative="1" as="geometry" />
        </mxCell>
        <mxCell id="irn-x4I0Ozi95wOQKls3-20" value="" style="shape=parallelogram;perimeter=parallelogramPerimeter;whiteSpace=wrap;html=1;fixedSize=1;" vertex="1" parent="1">
          <mxGeometry x="449" y="393" width="130" height="60" as="geometry" />
        </mxCell>
        <mxCell id="irn-x4I0Ozi95wOQKls3-45" style="edgeStyle=orthogonalEdgeStyle;rounded=0;orthogonalLoop=1;jettySize=auto;html=1;exitX=0;exitY=0.5;exitDx=0;exitDy=0;entryX=1;entryY=0.5;entryDx=0;entryDy=0;fontFamily=Times New Roman;fontSize=13;endArrow=block;endFill=1;" edge="1" parent="1" source="irn-x4I0Ozi95wOQKls3-21" target="irn-x4I0Ozi95wOQKls3-43">
          <mxGeometry relative="1" as="geometry" />
        </mxCell>
        <mxCell id="irn-x4I0Ozi95wOQKls3-21" value="" style="shape=parallelogram;perimeter=parallelogramPerimeter;whiteSpace=wrap;html=1;fixedSize=1;" vertex="1" parent="1">
          <mxGeometry x="459" y="549" width="110" height="50" as="geometry" />
        </mxCell>
        <mxCell id="irn-x4I0Ozi95wOQKls3-22" style="edgeStyle=orthogonalEdgeStyle;rounded=0;orthogonalLoop=1;jettySize=auto;html=1;exitX=0.5;exitY=1;exitDx=0;exitDy=0;entryX=0.5;entryY=0;entryDx=0;entryDy=0;fontFamily=Times New Roman;endArrow=block;endFill=1;" edge="1" parent="1" source="irn-x4I0Ozi95wOQKls3-23" target="irn-x4I0Ozi95wOQKls3-25">
          <mxGeometry relative="1" as="geometry" />
        </mxCell>
        <mxCell id="irn-x4I0Ozi95wOQKls3-35" style="edgeStyle=orthogonalEdgeStyle;rounded=0;orthogonalLoop=1;jettySize=auto;html=1;exitX=0;exitY=0.5;exitDx=0;exitDy=0;fontFamily=Times New Roman;fontSize=13;endArrow=block;endFill=1;" edge="1" parent="1" source="irn-x4I0Ozi95wOQKls3-23" target="irn-x4I0Ozi95wOQKls3-33">
          <mxGeometry relative="1" as="geometry" />
        </mxCell>
        <mxCell id="irn-x4I0Ozi95wOQKls3-75" style="edgeStyle=orthogonalEdgeStyle;rounded=0;orthogonalLoop=1;jettySize=auto;html=1;exitX=1;exitY=0.5;exitDx=0;exitDy=0;fontFamily=Times New Roman;fontSize=13;endArrow=block;endFill=1;" edge="1" parent="1" source="irn-x4I0Ozi95wOQKls3-23" target="irn-x4I0Ozi95wOQKls3-72">
          <mxGeometry relative="1" as="geometry" />
        </mxCell>
        <mxCell id="irn-x4I0Ozi95wOQKls3-23" value="" style="shape=parallelogram;perimeter=parallelogramPerimeter;whiteSpace=wrap;html=1;fixedSize=1;" vertex="1" parent="1">
          <mxGeometry x="414" y="85" width="200" height="70" as="geometry" />
        </mxCell>
        <mxCell id="irn-x4I0Ozi95wOQKls3-24" style="edgeStyle=orthogonalEdgeStyle;rounded=0;orthogonalLoop=1;jettySize=auto;html=1;exitX=0.5;exitY=1;exitDx=0;exitDy=0;fontFamily=Times New Roman;endArrow=block;endFill=1;" edge="1" parent="1" source="irn-x4I0Ozi95wOQKls3-25" target="irn-x4I0Ozi95wOQKls3-18">
          <mxGeometry relative="1" as="geometry" />
        </mxCell>
        <mxCell id="irn-x4I0Ozi95wOQKls3-25" value="&lt;p class=&quot;MsoNormal&quot;&gt;&lt;b&gt;&lt;font style=&quot;font-size: 13px;&quot; face=&quot;Times New Roman&quot;&gt;EfficientNet-2&lt;/font&gt;&lt;/b&gt;&lt;/p&gt;" style="rounded=1;whiteSpace=wrap;html=1;" vertex="1" parent="1">
          <mxGeometry x="469" y="180" width="90" height="30" as="geometry" />
        </mxCell>
        <mxCell id="irn-x4I0Ozi95wOQKls3-26" style="edgeStyle=orthogonalEdgeStyle;rounded=0;orthogonalLoop=1;jettySize=auto;html=1;exitX=0.5;exitY=1;exitDx=0;exitDy=0;fontFamily=Times New Roman;endArrow=block;endFill=1;" edge="1" parent="1" source="irn-x4I0Ozi95wOQKls3-27" target="irn-x4I0Ozi95wOQKls3-20">
          <mxGeometry relative="1" as="geometry" />
        </mxCell>
        <mxCell id="irn-x4I0Ozi95wOQKls3-27" value="&lt;p class=&quot;MsoNormal&quot;&gt;&lt;b&gt;&lt;font style=&quot;font-size: 13px;&quot; face=&quot;Times New Roman&quot;&gt;EfficientNet-3&lt;/font&gt;&lt;/b&gt;&lt;/p&gt;" style="rounded=1;whiteSpace=wrap;html=1;" vertex="1" parent="1">
          <mxGeometry x="469" y="332" width="90" height="30" as="geometry" />
        </mxCell>
        <mxCell id="irn-x4I0Ozi95wOQKls3-28" style="edgeStyle=orthogonalEdgeStyle;rounded=0;orthogonalLoop=1;jettySize=auto;html=1;exitX=0.5;exitY=1;exitDx=0;exitDy=0;entryX=0.5;entryY=0;entryDx=0;entryDy=0;fontFamily=Times New Roman;endArrow=block;endFill=1;" edge="1" parent="1" source="irn-x4I0Ozi95wOQKls3-29" target="irn-x4I0Ozi95wOQKls3-21">
          <mxGeometry relative="1" as="geometry" />
        </mxCell>
        <mxCell id="irn-x4I0Ozi95wOQKls3-29" value="&lt;p class=&quot;MsoNormal&quot;&gt;&lt;b&gt;&lt;font style=&quot;font-size: 13px;&quot; face=&quot;Times New Roman&quot;&gt;EfficientNet-4&lt;/font&gt;&lt;/b&gt;&lt;/p&gt;" style="rounded=1;whiteSpace=wrap;html=1;" vertex="1" parent="1">
          <mxGeometry x="469" y="483" width="90" height="30" as="geometry" />
        </mxCell>
        <mxCell id="irn-x4I0Ozi95wOQKls3-30" style="edgeStyle=orthogonalEdgeStyle;rounded=0;orthogonalLoop=1;jettySize=auto;html=1;exitX=0.5;exitY=1;exitDx=0;exitDy=0;entryX=0.5;entryY=0;entryDx=0;entryDy=0;fontFamily=Times New Roman;endArrow=block;endFill=1;" edge="1" parent="1" source="irn-x4I0Ozi95wOQKls3-31" target="irn-x4I0Ozi95wOQKls3-23">
          <mxGeometry relative="1" as="geometry" />
        </mxCell>
        <mxCell id="irn-x4I0Ozi95wOQKls3-31" value="&lt;p class=&quot;MsoNormal&quot;&gt;&lt;b&gt;&lt;font style=&quot;font-size: 13px;&quot; face=&quot;Times New Roman&quot;&gt;EfficientNet-1&lt;/font&gt;&lt;/b&gt;&lt;/p&gt;" style="rounded=1;whiteSpace=wrap;html=1;" vertex="1" parent="1">
          <mxGeometry x="469" y="29" width="90" height="30" as="geometry" />
        </mxCell>
        <mxCell id="irn-x4I0Ozi95wOQKls3-33" value="&lt;p class=&quot;MsoNormal&quot;&gt;&lt;span&gt;&lt;font face=&quot;Times New Roman&quot; style=&quot;font-size: 13px;&quot;&gt;&lt;b&gt;Selective Fusion Module&amp;nbsp;&lt;/b&gt;&lt;/font&gt;&lt;/span&gt;&lt;/p&gt;" style="rounded=1;whiteSpace=wrap;html=1;" vertex="1" parent="1">
          <mxGeometry x="240" y="105" width="150" height="30" as="geometry" />
        </mxCell>
        <mxCell id="irn-x4I0Ozi95wOQKls3-50" style="edgeStyle=orthogonalEdgeStyle;rounded=0;orthogonalLoop=1;jettySize=auto;html=1;exitX=0.5;exitY=1;exitDx=0;exitDy=0;entryX=0;entryY=0.5;entryDx=0;entryDy=0;fontFamily=Times New Roman;fontSize=13;endArrow=block;endFill=1;" edge="1" parent="1" source="irn-x4I0Ozi95wOQKls3-43" target="irn-x4I0Ozi95wOQKls3-48">
          <mxGeometry relative="1" as="geometry" />
        </mxCell>
        <mxCell id="irn-x4I0Ozi95wOQKls3-37" value="&lt;p class=&quot;MsoNormal&quot;&gt;&lt;span&gt;&lt;font face=&quot;Times New Roman&quot; style=&quot;font-size: 13px;&quot;&gt;&lt;b&gt;Selective Fusion Module&amp;nbsp;&lt;/b&gt;&lt;/font&gt;&lt;/span&gt;&lt;/p&gt;" style="rounded=1;whiteSpace=wrap;html=1;" vertex="1" parent="1">
          <mxGeometry x="240" y="257" width="150" height="30" as="geometry" />
        </mxCell>
        <mxCell id="irn-x4I0Ozi95wOQKls3-51" style="edgeStyle=orthogonalEdgeStyle;rounded=0;orthogonalLoop=1;jettySize=auto;html=1;exitX=0.5;exitY=1;exitDx=0;exitDy=0;entryX=0;entryY=0.5;entryDx=0;entryDy=0;fontFamily=Times New Roman;fontSize=13;endArrow=block;endFill=1;" edge="1" parent="1" source="irn-x4I0Ozi95wOQKls3-40" target="irn-x4I0Ozi95wOQKls3-49">
          <mxGeometry relative="1" as="geometry" />
        </mxCell>
        <mxCell id="irn-x4I0Ozi95wOQKls3-40" value="&lt;p class=&quot;MsoNormal&quot;&gt;&lt;span&gt;&lt;font face=&quot;Times New Roman&quot; style=&quot;font-size: 13px;&quot;&gt;&lt;b&gt;Selective Fusion Module&amp;nbsp;&lt;/b&gt;&lt;/font&gt;&lt;/span&gt;&lt;/p&gt;" style="rounded=1;whiteSpace=wrap;html=1;" vertex="1" parent="1">
          <mxGeometry x="240" y="408" width="150" height="30" as="geometry" />
        </mxCell>
        <mxCell id="irn-x4I0Ozi95wOQKls3-43" value="&lt;p class=&quot;MsoNormal&quot;&gt;&lt;span&gt;&lt;font face=&quot;Times New Roman&quot; style=&quot;font-size: 13px;&quot;&gt;&lt;b&gt;Selective Fusion Module&amp;nbsp;&lt;/b&gt;&lt;/font&gt;&lt;/span&gt;&lt;/p&gt;" style="rounded=1;whiteSpace=wrap;html=1;" vertex="1" parent="1">
          <mxGeometry x="240" y="559" width="150" height="30" as="geometry" />
        </mxCell>
        <mxCell id="irn-x4I0Ozi95wOQKls3-55" style="edgeStyle=orthogonalEdgeStyle;rounded=0;orthogonalLoop=1;jettySize=auto;html=1;exitX=1;exitY=0.5;exitDx=0;exitDy=0;entryX=0;entryY=0.5;entryDx=0;entryDy=0;fontFamily=Times New Roman;fontSize=13;endArrow=block;endFill=1;" edge="1" parent="1" target="irn-x4I0Ozi95wOQKls3-54">
          <mxGeometry relative="1" as="geometry">
            <mxPoint x="762" y="615" as="sourcePoint" />
          </mxGeometry>
        </mxCell>
        <mxCell id="irn-x4I0Ozi95wOQKls3-48" value="&lt;p style=&quot;font-size: 13px;&quot; class=&quot;Msoheading9&quot;&gt;&lt;font face=&quot;Times New Roman&quot;&gt;&lt;b&gt;&lt;font style=&quot;font-size: 13px;&quot;&gt;Multi-scale &lt;/font&gt;&lt;font style=&quot;font-size: 13px;&quot;&gt;F&lt;/font&gt;&lt;font style=&quot;font-size: 13px;&quot;&gt;usion &lt;/font&gt;&lt;font style=&quot;font-size: 13px;&quot;&gt;M&lt;/font&gt;&lt;font style=&quot;font-size: 13px;&quot;&gt;odule&lt;/font&gt;&lt;/b&gt;&lt;/font&gt;&lt;b&gt;&lt;span style=&quot;font-family: Cambria; font-size: 10.5pt;&quot;&gt;&lt;/span&gt;&lt;/b&gt;&lt;/p&gt;" style="rounded=1;whiteSpace=wrap;html=1;" vertex="1" parent="1">
          <mxGeometry x="601" y="600" width="160" height="30" as="geometry" />
        </mxCell>
        <mxCell id="irn-x4I0Ozi95wOQKls3-58" style="edgeStyle=orthogonalEdgeStyle;rounded=0;orthogonalLoop=1;jettySize=auto;html=1;exitX=1;exitY=0.5;exitDx=0;exitDy=0;entryX=0;entryY=0.5;entryDx=0;entryDy=0;fontFamily=Times New Roman;fontSize=13;endArrow=block;endFill=1;" edge="1" parent="1" target="irn-x4I0Ozi95wOQKls3-57">
          <mxGeometry relative="1" as="geometry">
            <mxPoint x="761" y="465" as="sourcePoint" />
          </mxGeometry>
        </mxCell>
        <mxCell id="irn-x4I0Ozi95wOQKls3-49" value="&lt;p style=&quot;font-size: 13px;&quot; class=&quot;Msoheading9&quot;&gt;&lt;font face=&quot;Times New Roman&quot;&gt;&lt;b&gt;&lt;font style=&quot;font-size: 13px;&quot;&gt;Multi-scale &lt;/font&gt;&lt;font style=&quot;font-size: 13px;&quot;&gt;F&lt;/font&gt;&lt;font style=&quot;font-size: 13px;&quot;&gt;usion &lt;/font&gt;&lt;font style=&quot;font-size: 13px;&quot;&gt;M&lt;/font&gt;&lt;font style=&quot;font-size: 13px;&quot;&gt;odule&lt;/font&gt;&lt;/b&gt;&lt;/font&gt;&lt;b&gt;&lt;span style=&quot;font-family: Cambria; font-size: 10.5pt;&quot;&gt;&lt;/span&gt;&lt;/b&gt;&lt;/p&gt;" style="rounded=1;whiteSpace=wrap;html=1;" vertex="1" parent="1">
          <mxGeometry x="600" y="450" width="160" height="30" as="geometry" />
        </mxCell>
        <mxCell id="irn-x4I0Ozi95wOQKls3-69" value="" style="edgeStyle=orthogonalEdgeStyle;rounded=0;orthogonalLoop=1;jettySize=auto;html=1;fontFamily=Times New Roman;fontSize=13;endArrow=block;endFill=1;" edge="1" parent="1" source="irn-x4I0Ozi95wOQKls3-54" target="irn-x4I0Ozi95wOQKls3-68">
          <mxGeometry relative="1" as="geometry" />
        </mxCell>
        <mxCell id="irn-x4I0Ozi95wOQKls3-54" value="" style="shape=parallelogram;perimeter=parallelogramPerimeter;whiteSpace=wrap;html=1;fixedSize=1;" vertex="1" parent="1">
          <mxGeometry x="809" y="590" width="110" height="50" as="geometry" />
        </mxCell>
        <mxCell id="irn-x4I0Ozi95wOQKls3-62" style="edgeStyle=orthogonalEdgeStyle;rounded=0;orthogonalLoop=1;jettySize=auto;html=1;exitX=1;exitY=0.5;exitDx=0;exitDy=0;entryX=0;entryY=0.5;entryDx=0;entryDy=0;fontFamily=Times New Roman;fontSize=13;endArrow=block;endFill=1;" edge="1" parent="1" source="irn-x4I0Ozi95wOQKls3-57">
          <mxGeometry relative="1" as="geometry">
            <mxPoint x="964" y="464.5" as="targetPoint" />
          </mxGeometry>
        </mxCell>
        <mxCell id="irn-x4I0Ozi95wOQKls3-57" value="" style="shape=parallelogram;perimeter=parallelogramPerimeter;whiteSpace=wrap;html=1;fixedSize=1;" vertex="1" parent="1">
          <mxGeometry x="801" y="435" width="130" height="60" as="geometry" />
        </mxCell>
        <mxCell id="irn-x4I0Ozi95wOQKls3-65" style="edgeStyle=orthogonalEdgeStyle;rounded=0;orthogonalLoop=1;jettySize=auto;html=1;exitX=1;exitY=0.5;exitDx=0;exitDy=0;entryX=0;entryY=0.5;entryDx=0;entryDy=0;fontFamily=Times New Roman;fontSize=13;endArrow=block;endFill=1;" edge="1" parent="1" source="irn-x4I0Ozi95wOQKls3-73" target="irn-x4I0Ozi95wOQKls3-64">
          <mxGeometry relative="1" as="geometry">
            <mxPoint x="947" y="272" as="sourcePoint" />
          </mxGeometry>
        </mxCell>
        <mxCell id="irn-x4I0Ozi95wOQKls3-66" style="edgeStyle=orthogonalEdgeStyle;rounded=0;orthogonalLoop=1;jettySize=auto;html=1;exitX=0.5;exitY=0;exitDx=0;exitDy=0;entryX=0.5;entryY=1;entryDx=0;entryDy=0;fontFamily=Times New Roman;fontSize=13;endArrow=block;endFill=1;" edge="1" parent="1" source="irn-x4I0Ozi95wOQKls3-61" target="irn-x4I0Ozi95wOQKls3-64">
          <mxGeometry relative="1" as="geometry" />
        </mxCell>
        <mxCell id="irn-x4I0Ozi95wOQKls3-61" value="" style="shape=parallelogram;perimeter=parallelogramPerimeter;whiteSpace=wrap;html=1;fixedSize=1;" vertex="1" parent="1">
          <mxGeometry x="953" y="432" width="160" height="65" as="geometry" />
        </mxCell>
        <mxCell id="irn-x4I0Ozi95wOQKls3-80" style="edgeStyle=orthogonalEdgeStyle;rounded=0;orthogonalLoop=1;jettySize=auto;html=1;exitX=1;exitY=0.5;exitDx=0;exitDy=0;fontFamily=Times New Roman;fontSize=13;endArrow=block;endFill=1;entryX=0;entryY=0.5;entryDx=0;entryDy=0;" edge="1" parent="1" source="irn-x4I0Ozi95wOQKls3-64" target="irn-x4I0Ozi95wOQKls3-81">
          <mxGeometry relative="1" as="geometry">
            <mxPoint x="1210" y="272" as="targetPoint" />
          </mxGeometry>
        </mxCell>
        <mxCell id="irn-x4I0Ozi95wOQKls3-64" value="" style="shape=sumEllipse;perimeter=ellipsePerimeter;whiteSpace=wrap;html=1;backgroundOutline=1;fontFamily=Times New Roman;fontSize=13;strokeWidth=1.5;" vertex="1" parent="1">
          <mxGeometry x="1018" y="257" width="30" height="30" as="geometry" />
        </mxCell>
        <mxCell id="irn-x4I0Ozi95wOQKls3-67" style="edgeStyle=orthogonalEdgeStyle;rounded=0;orthogonalLoop=1;jettySize=auto;html=1;exitX=1;exitY=0.5;exitDx=0;exitDy=0;entryX=0;entryY=0.5;entryDx=0;entryDy=0;fontFamily=Times New Roman;fontSize=13;endArrow=block;endFill=1;" edge="1" parent="1" target="irn-x4I0Ozi95wOQKls3-68">
          <mxGeometry relative="1" as="geometry">
            <mxPoint x="919" y="615" as="sourcePoint" />
            <mxPoint x="982" y="615" as="targetPoint" />
          </mxGeometry>
        </mxCell>
        <mxCell id="irn-x4I0Ozi95wOQKls3-71" style="edgeStyle=orthogonalEdgeStyle;rounded=0;orthogonalLoop=1;jettySize=auto;html=1;exitX=0.5;exitY=0;exitDx=0;exitDy=0;entryX=0.5;entryY=1;entryDx=0;entryDy=0;fontFamily=Times New Roman;fontSize=13;endArrow=block;endFill=1;" edge="1" parent="1" source="irn-x4I0Ozi95wOQKls3-68" target="irn-x4I0Ozi95wOQKls3-70">
          <mxGeometry relative="1" as="geometry" />
        </mxCell>
        <mxCell id="irn-x4I0Ozi95wOQKls3-68" value="" style="shape=parallelogram;perimeter=parallelogramPerimeter;whiteSpace=wrap;html=1;fixedSize=1;" vertex="1" parent="1">
          <mxGeometry x="1038" y="580" width="200" height="70" as="geometry" />
        </mxCell>
        <mxCell id="irn-x4I0Ozi95wOQKls3-78" style="edgeStyle=orthogonalEdgeStyle;rounded=0;orthogonalLoop=1;jettySize=auto;html=1;exitX=1;exitY=0.5;exitDx=0;exitDy=0;fontFamily=Times New Roman;fontSize=13;endArrow=block;endFill=1;entryX=0;entryY=0.5;entryDx=0;entryDy=0;" edge="1" parent="1" source="irn-x4I0Ozi95wOQKls3-70" target="irn-x4I0Ozi95wOQKls3-79">
          <mxGeometry relative="1" as="geometry">
            <mxPoint x="1230" y="119.57894736842104" as="targetPoint" />
          </mxGeometry>
        </mxCell>
        <mxCell id="irn-x4I0Ozi95wOQKls3-70" value="" style="shape=sumEllipse;perimeter=ellipsePerimeter;whiteSpace=wrap;html=1;backgroundOutline=1;fontFamily=Times New Roman;fontSize=13;strokeWidth=1.5;" vertex="1" parent="1">
          <mxGeometry x="1123" y="105" width="30" height="30" as="geometry" />
        </mxCell>
        <mxCell id="irn-x4I0Ozi95wOQKls3-74" style="edgeStyle=orthogonalEdgeStyle;rounded=0;orthogonalLoop=1;jettySize=auto;html=1;exitX=1;exitY=0.5;exitDx=0;exitDy=0;fontFamily=Times New Roman;fontSize=13;endArrow=block;endFill=1;" edge="1" parent="1" source="irn-x4I0Ozi95wOQKls3-72" target="irn-x4I0Ozi95wOQKls3-70">
          <mxGeometry relative="1" as="geometry" />
        </mxCell>
        <mxCell id="irn-x4I0Ozi95wOQKls3-72" value="" style="shape=parallelogram;perimeter=parallelogramPerimeter;whiteSpace=wrap;html=1;fixedSize=1;" vertex="1" parent="1">
          <mxGeometry x="770" y="85" width="200" height="70" as="geometry" />
        </mxCell>
        <mxCell id="irn-x4I0Ozi95wOQKls3-73" value="" style="shape=parallelogram;perimeter=parallelogramPerimeter;whiteSpace=wrap;html=1;fixedSize=1;" vertex="1" parent="1">
          <mxGeometry x="782" y="242" width="160" height="60" as="geometry" />
        </mxCell>
        <mxCell id="irn-x4I0Ozi95wOQKls3-83" style="edgeStyle=orthogonalEdgeStyle;rounded=0;orthogonalLoop=1;jettySize=auto;html=1;exitX=1;exitY=0.5;exitDx=0;exitDy=0;entryX=0;entryY=0.5;entryDx=0;entryDy=0;fontFamily=Times New Roman;fontSize=13;endArrow=block;endFill=1;" edge="1" parent="1" source="irn-x4I0Ozi95wOQKls3-79" target="irn-x4I0Ozi95wOQKls3-82">
          <mxGeometry relative="1" as="geometry" />
        </mxCell>
        <mxCell id="irn-x4I0Ozi95wOQKls3-79" value="" style="shape=parallelogram;perimeter=parallelogramPerimeter;whiteSpace=wrap;html=1;fixedSize=1;" vertex="1" parent="1">
          <mxGeometry x="1190" y="85" width="200" height="70" as="geometry" />
        </mxCell>
        <mxCell id="irn-x4I0Ozi95wOQKls3-84" style="edgeStyle=orthogonalEdgeStyle;rounded=0;orthogonalLoop=1;jettySize=auto;html=1;exitX=0.5;exitY=0;exitDx=0;exitDy=0;entryX=0.5;entryY=1;entryDx=0;entryDy=0;fontFamily=Times New Roman;fontSize=13;endArrow=block;endFill=1;" edge="1" parent="1" source="irn-x4I0Ozi95wOQKls3-81" target="irn-x4I0Ozi95wOQKls3-82">
          <mxGeometry relative="1" as="geometry" />
        </mxCell>
        <mxCell id="irn-x4I0Ozi95wOQKls3-81" value="" style="shape=parallelogram;perimeter=parallelogramPerimeter;whiteSpace=wrap;html=1;fixedSize=1;" vertex="1" parent="1">
          <mxGeometry x="1363" y="241.5" width="160" height="60" as="geometry" />
        </mxCell>
        <mxCell id="irn-x4I0Ozi95wOQKls3-82" value="" style="shape=orEllipse;perimeter=ellipsePerimeter;whiteSpace=wrap;html=1;backgroundOutline=1;fontFamily=Times New Roman;fontSize=13;strokeWidth=1.5;" vertex="1" parent="1">
          <mxGeometry x="1428" y="105" width="30" height="30" as="geometry" />
        </mxCell>
      </root>
    </mxGraphModel>
  </diagram>
</mxfile>
